<?xml version="1.0" encoding="utf-8"?><svg viewBox="0 0 32 32" xmlns="http://www.w3.org/2000/svg" xmlns:xlink="http://www.w3.org/1999/xlink"><style>:root>svg{display:none}:root>svg:target{display:block}</style><svg fill="none" viewBox="0 0 32 32" id="check" xmlns="http://www.w3.org/2000/svg"><path fill="#00BE1E" d="M0 0h32v32H0z"/><path d="m10 15.1 5.25 5.4 8.75-9" stroke="#fff" stroke-width="2"/></svg><svg fill="none" viewBox="0 0 32 32" id="exclamation" xmlns="http://www.w3.org/2000/svg"><path fill="#DE0000" d="M0 0h32v32H0z"/><path d="m17.074 10.364-.188 8.215h-1.83l-.181-8.215h2.199Zm-1.102 11.761c-.345 0-.64-.121-.887-.364a1.206 1.206 0 0 1-.363-.886c0-.34.12-.633.363-.875.246-.242.542-.364.887-.364.337 0 .628.122.875.364.25.242.375.534.375.875 0 .231-.06.441-.177.63-.113.19-.265.342-.454.455-.186.11-.392.165-.62.165Z" fill="#fff"/></svg></svg>