<svg width="278" height="50" viewBox="0 0 278 50" fill="none" xmlns="http://www.w3.org/2000/svg">
<path d="M13.4004 47.9998H0V42.9169H13.4004C21.0867 42.9169 27.34 36.6636 27.34 28.9773V2H32.423V28.9773C32.423 39.4666 23.8892 47.9998 13.4004 47.9998Z" fill="#0900FB"/>
<path d="M13.0907 11.0879H8.00781V40.6057H13.0907V11.0879Z" fill="#0900FB"/>
<path d="M5.69886 22.7881C2.18473 26.2417 0 31.0437 0 36.3484H5.08291C5.08291 34.9219 5.29916 33.5454 5.69886 32.2483V22.7881Z" fill="#0900FB"/>
<path d="M22.6005 6.00488V36.0772C21.2974 37.7638 19.5415 39.0854 17.5176 39.8524V6.00488H22.6005Z" fill="#0900FB"/>
<path d="M55.9456 4.45455V19H54.1842V4.45455H55.9456ZM71.0113 4.45455V19H69.3067L61.3806 7.57955H61.2385V19H59.4772V4.45455H61.1817L69.1363 15.9034H69.2783V4.45455H71.0113ZM75.1324 4.45455L79.4506 16.6989H79.621L83.9392 4.45455H85.7858L80.4449 19H78.6267L73.2858 4.45455H75.1324ZM88.0514 19V4.45455H96.8298V6.01705H89.8128V10.9318H96.3753V12.4943H89.8128V17.4375H96.9434V19H88.0514ZM107.959 8.09091C107.874 7.37121 107.528 6.8125 106.922 6.41477C106.316 6.01705 105.573 5.81818 104.692 5.81818C104.048 5.81818 103.485 5.92235 103.002 6.13068C102.523 6.33901 102.149 6.62547 101.88 6.99006C101.614 7.35464 101.482 7.76894 101.482 8.23295C101.482 8.62121 101.574 8.95502 101.759 9.23438C101.948 9.509 102.19 9.73864 102.483 9.9233C102.777 10.1032 103.085 10.2524 103.407 10.3707C103.728 10.4844 104.024 10.5767 104.294 10.6477L105.772 11.0455C106.15 11.1449 106.572 11.2822 107.036 11.4574C107.505 11.6326 107.952 11.8717 108.378 12.1747C108.809 12.473 109.164 12.8565 109.443 13.3253C109.723 13.794 109.862 14.3693 109.862 15.0511C109.862 15.8371 109.657 16.5473 109.245 17.1818C108.837 17.8163 108.241 18.3205 107.455 18.6946C106.674 19.0687 105.724 19.2557 104.607 19.2557C103.565 19.2557 102.663 19.0876 101.901 18.7514C101.143 18.4152 100.547 17.9465 100.111 17.3452C99.6802 16.7438 99.4363 16.0455 99.3795 15.25H101.198C101.245 15.7992 101.43 16.2538 101.752 16.6136C102.078 16.9687 102.49 17.2339 102.987 17.4091C103.489 17.5795 104.029 17.6648 104.607 17.6648C105.279 17.6648 105.883 17.5559 106.418 17.3381C106.953 17.1155 107.377 16.8078 107.689 16.4148C108.002 16.017 108.158 15.553 108.158 15.0227C108.158 14.5398 108.023 14.1468 107.753 13.8438C107.483 13.5407 107.128 13.2945 106.688 13.1051C106.247 12.9157 105.772 12.75 105.26 12.608L103.47 12.0966C102.334 11.7699 101.434 11.3035 100.772 10.6974C100.109 10.0914 99.7773 9.2983 99.7773 8.31818C99.7773 7.50379 99.9974 6.79356 100.438 6.1875C100.883 5.5767 101.479 5.10322 102.228 4.76705C102.98 4.42614 103.821 4.25568 104.749 4.25568C105.686 4.25568 106.52 4.42377 107.249 4.75994C107.978 5.09138 108.556 5.54593 108.982 6.12358C109.413 6.70123 109.64 7.35701 109.664 8.09091H107.959ZM111.963 6.01705V4.45455H122.872V6.01705H118.298V19H116.537V6.01705H111.963ZM142.92 9H141.159C141.054 8.49337 140.872 8.0483 140.612 7.66477C140.356 7.28125 140.044 6.95928 139.674 6.69886C139.31 6.43371 138.905 6.23485 138.46 6.10227C138.015 5.9697 137.551 5.90341 137.068 5.90341C136.187 5.90341 135.389 6.12595 134.674 6.57102C133.964 7.0161 133.398 7.67188 132.977 8.53835C132.56 9.40483 132.352 10.4678 132.352 11.7273C132.352 12.9867 132.56 14.0497 132.977 14.9162C133.398 15.7827 133.964 16.4384 134.674 16.8835C135.389 17.3286 136.187 17.5511 137.068 17.5511C137.551 17.5511 138.015 17.4848 138.46 17.3523C138.905 17.2197 139.31 17.0232 139.674 16.7628C140.044 16.4976 140.356 16.1733 140.612 15.7898C140.872 15.4015 141.054 14.9564 141.159 14.4545H142.92C142.787 15.1979 142.546 15.8632 142.196 16.4503C141.845 17.0374 141.41 17.5369 140.889 17.9489C140.368 18.3561 139.783 18.6662 139.134 18.8793C138.491 19.0923 137.802 19.1989 137.068 19.1989C135.827 19.1989 134.724 18.8958 133.758 18.2898C132.792 17.6837 132.032 16.822 131.478 15.7045C130.924 14.5871 130.647 13.2614 130.647 11.7273C130.647 10.1932 130.924 8.86742 131.478 7.75C132.032 6.63258 132.792 5.77083 133.758 5.16477C134.724 4.55871 135.827 4.25568 137.068 4.25568C137.802 4.25568 138.491 4.36222 139.134 4.57528C139.783 4.78835 140.368 5.10085 140.889 5.51278C141.41 5.91998 141.845 6.41714 142.196 7.00426C142.546 7.58665 142.787 8.25189 142.92 9ZM158.039 11.7273C158.039 13.2614 157.762 14.5871 157.208 15.7045C156.654 16.822 155.894 17.6837 154.928 18.2898C153.962 18.8958 152.859 19.1989 151.619 19.1989C150.378 19.1989 149.275 18.8958 148.309 18.2898C147.343 17.6837 146.583 16.822 146.029 15.7045C145.475 14.5871 145.198 13.2614 145.198 11.7273C145.198 10.1932 145.475 8.86742 146.029 7.75C146.583 6.63258 147.343 5.77083 148.309 5.16477C149.275 4.55871 150.378 4.25568 151.619 4.25568C152.859 4.25568 153.962 4.55871 154.928 5.16477C155.894 5.77083 156.654 6.63258 157.208 7.75C157.762 8.86742 158.039 10.1932 158.039 11.7273ZM156.334 11.7273C156.334 10.4678 156.124 9.40483 155.702 8.53835C155.286 7.67188 154.72 7.0161 154.005 6.57102C153.295 6.12595 152.499 5.90341 151.619 5.90341C150.738 5.90341 149.94 6.12595 149.225 6.57102C148.515 7.0161 147.949 7.67188 147.528 8.53835C147.111 9.40483 146.903 10.4678 146.903 11.7273C146.903 12.9867 147.111 14.0497 147.528 14.9162C147.949 15.7827 148.515 16.4384 149.225 16.8835C149.94 17.3286 150.738 17.5511 151.619 17.5511C152.499 17.5511 153.295 17.3286 154.005 16.8835C154.72 16.4384 155.286 15.7827 155.702 14.9162C156.124 14.0497 156.334 12.9867 156.334 11.7273ZM172.535 4.45455V19H170.83L162.904 7.57955H162.762V19H161.001V4.45455H162.705L170.66 15.9034H170.802V4.45455H172.535ZM187.593 4.45455V19H185.889L177.963 7.57955H177.821V19H176.059V4.45455H177.764L185.718 15.9034H185.86V4.45455H187.593ZM191.118 19V4.45455H199.896V6.01705H192.879V10.9318H199.442V12.4943H192.879V17.4375H200.01V19H191.118ZM214.775 9H213.014C212.91 8.49337 212.728 8.0483 212.467 7.66477C212.212 7.28125 211.899 6.95928 211.53 6.69886C211.165 6.43371 210.76 6.23485 210.315 6.10227C209.87 5.9697 209.406 5.90341 208.923 5.90341C208.043 5.90341 207.245 6.12595 206.53 6.57102C205.82 7.0161 205.254 7.67188 204.832 8.53835C204.416 9.40483 204.207 10.4678 204.207 11.7273C204.207 12.9867 204.416 14.0497 204.832 14.9162C205.254 15.7827 205.82 16.4384 206.53 16.8835C207.245 17.3286 208.043 17.5511 208.923 17.5511C209.406 17.5511 209.87 17.4848 210.315 17.3523C210.76 17.2197 211.165 17.0232 211.53 16.7628C211.899 16.4976 212.212 16.1733 212.467 15.7898C212.728 15.4015 212.91 14.9564 213.014 14.4545H214.775C214.643 15.1979 214.401 15.8632 214.051 16.4503C213.701 17.0374 213.265 17.5369 212.744 17.9489C212.223 18.3561 211.639 18.6662 210.99 18.8793C210.346 19.0923 209.657 19.1989 208.923 19.1989C207.683 19.1989 206.579 18.8958 205.614 18.2898C204.648 17.6837 203.888 16.822 203.334 15.7045C202.78 14.5871 202.503 13.2614 202.503 11.7273C202.503 10.1932 202.78 8.86742 203.334 7.75C203.888 6.63258 204.648 5.77083 205.614 5.16477C206.579 4.55871 207.683 4.25568 208.923 4.25568C209.657 4.25568 210.346 4.36222 210.99 4.57528C211.639 4.78835 212.223 5.10085 212.744 5.51278C213.265 5.91998 213.701 6.41714 214.051 7.00426C214.401 7.58665 214.643 8.25189 214.775 9ZM216.826 6.01705V4.45455H227.735V6.01705H223.161V19H221.4V6.01705H216.826ZM232.215 4.45455V19H230.454V4.45455H232.215ZM248.019 11.7273C248.019 13.2614 247.742 14.5871 247.188 15.7045C246.634 16.822 245.875 17.6837 244.909 18.2898C243.943 18.8958 242.84 19.1989 241.599 19.1989C240.358 19.1989 239.255 18.8958 238.289 18.2898C237.323 17.6837 236.563 16.822 236.009 15.7045C235.456 14.5871 235.179 13.2614 235.179 11.7273C235.179 10.1932 235.456 8.86742 236.009 7.75C236.563 6.63258 237.323 5.77083 238.289 5.16477C239.255 4.55871 240.358 4.25568 241.599 4.25568C242.84 4.25568 243.943 4.55871 244.909 5.16477C245.875 5.77083 246.634 6.63258 247.188 7.75C247.742 8.86742 248.019 10.1932 248.019 11.7273ZM246.315 11.7273C246.315 10.4678 246.104 9.40483 245.683 8.53835C245.266 7.67188 244.7 7.0161 243.985 6.57102C243.275 6.12595 242.48 5.90341 241.599 5.90341C240.718 5.90341 239.92 6.12595 239.206 6.57102C238.495 7.0161 237.929 7.67188 237.508 8.53835C237.091 9.40483 236.883 10.4678 236.883 11.7273C236.883 12.9867 237.091 14.0497 237.508 14.9162C237.929 15.7827 238.495 16.4384 239.206 16.8835C239.92 17.3286 240.718 17.5511 241.599 17.5511C242.48 17.5511 243.275 17.3286 243.985 16.8835C244.7 16.4384 245.266 15.7827 245.683 14.9162C246.104 14.0497 246.315 12.9867 246.315 11.7273ZM262.515 4.45455V19H260.811L252.884 7.57955H252.742V19H250.981V4.45455H252.686L260.64 15.9034H260.782V4.45455H262.515ZM273.994 8.09091C273.909 7.37121 273.563 6.8125 272.957 6.41477C272.351 6.01705 271.608 5.81818 270.727 5.81818C270.083 5.81818 269.52 5.92235 269.037 6.13068C268.559 6.33901 268.185 6.62547 267.915 6.99006C267.65 7.35464 267.517 7.76894 267.517 8.23295C267.517 8.62121 267.609 8.95502 267.794 9.23438C267.983 9.509 268.225 9.73864 268.518 9.9233C268.812 10.1032 269.12 10.2524 269.442 10.3707C269.764 10.4844 270.06 10.5767 270.329 10.6477L271.807 11.0455C272.186 11.1449 272.607 11.2822 273.071 11.4574C273.54 11.6326 273.987 11.8717 274.413 12.1747C274.844 12.473 275.199 12.8565 275.479 13.3253C275.758 13.794 275.898 14.3693 275.898 15.0511C275.898 15.8371 275.692 16.5473 275.28 17.1818C274.873 17.8163 274.276 18.3205 273.49 18.6946C272.709 19.0687 271.759 19.2557 270.642 19.2557C269.6 19.2557 268.698 19.0876 267.936 18.7514C267.178 18.4152 266.582 17.9465 266.146 17.3452C265.715 16.7438 265.472 16.0455 265.415 15.25H267.233C267.28 15.7992 267.465 16.2538 267.787 16.6136C268.114 16.9687 268.525 17.2339 269.023 17.4091C269.525 17.5795 270.064 17.6648 270.642 17.6648C271.314 17.6648 271.918 17.5559 272.453 17.3381C272.988 17.1155 273.412 16.8078 273.724 16.4148C274.037 16.017 274.193 15.553 274.193 15.0227C274.193 14.5398 274.058 14.1468 273.788 13.8438C273.518 13.5407 273.163 13.2945 272.723 13.1051C272.283 12.9157 271.807 12.75 271.295 12.608L269.506 12.0966C268.369 11.7699 267.47 11.3035 266.807 10.6974C266.144 10.0914 265.812 9.2983 265.812 8.31818C265.812 7.50379 266.033 6.79356 266.473 6.1875C266.918 5.5767 267.515 5.10322 268.263 4.76705C269.016 4.42614 269.856 4.25568 270.784 4.25568C271.722 4.25568 272.555 4.42377 273.284 4.75994C274.013 5.09138 274.591 5.54593 275.017 6.12358C275.448 6.70123 275.675 7.35701 275.699 8.09091H273.994Z" fill="black"/>
<path d="M57.1388 45H52.8774L57.6785 30.4545H63.0763L67.8774 45H63.616L60.4342 34.4602H60.3206L57.1388 45ZM56.3433 39.2614H64.3547V42.2159H56.3433V39.2614ZM76.5528 35C76.5149 34.5265 76.3374 34.1572 76.0202 33.892C75.7077 33.6269 75.2318 33.4943 74.5926 33.4943C74.1854 33.4943 73.8516 33.544 73.5912 33.6435C73.3355 33.7382 73.1461 33.8684 73.023 34.0341C72.8999 34.1998 72.836 34.3892 72.8312 34.6023C72.8218 34.7775 72.8525 34.9361 72.9236 35.0781C72.9993 35.2154 73.1177 35.3409 73.2787 35.4545C73.4397 35.5634 73.6456 35.6629 73.8966 35.7528C74.1475 35.8428 74.4458 35.9233 74.7915 35.9943L75.9846 36.25C76.7896 36.4205 77.4785 36.6454 78.0514 36.9247C78.6243 37.2041 79.0931 37.5331 79.4577 37.9119C79.8222 38.286 80.0898 38.7074 80.2602 39.1761C80.4354 39.6449 80.5254 40.1562 80.5301 40.7102C80.5254 41.6667 80.2863 42.4763 79.8128 43.1392C79.3393 43.8021 78.6622 44.3063 77.7815 44.652C76.9056 44.9976 75.8521 45.1705 74.621 45.1705C73.3568 45.1705 72.2536 44.9834 71.3113 44.6094C70.3738 44.2353 69.6447 43.66 69.1238 42.8835C68.6077 42.1023 68.3473 41.1032 68.3426 39.8864H72.0926C72.1163 40.3314 72.2275 40.7055 72.4264 41.0085C72.6253 41.3116 72.9046 41.5412 73.2645 41.6974C73.6291 41.8537 74.0623 41.9318 74.5642 41.9318C74.9856 41.9318 75.3383 41.8797 75.6224 41.7756C75.9065 41.6714 76.122 41.527 76.2687 41.3423C76.4155 41.1577 76.4913 40.947 76.496 40.7102C76.4913 40.4877 76.4179 40.2936 76.2758 40.1278C76.1385 39.9574 75.9113 39.8059 75.594 39.6733C75.2768 39.536 74.8483 39.4081 74.3085 39.2898L72.8596 38.9773C71.5718 38.6979 70.5561 38.2315 69.8128 37.5781C69.0741 36.92 68.7072 36.0227 68.7119 34.8864C68.7072 33.9631 68.9534 33.1558 69.4506 32.4645C69.9524 31.7685 70.6461 31.2263 71.5315 30.8381C72.4217 30.4498 73.442 30.2557 74.5926 30.2557C75.7668 30.2557 76.7825 30.4522 77.6395 30.8452C78.4965 31.2382 79.157 31.7921 79.621 32.5071C80.0898 33.2173 80.3265 34.0483 80.3312 35H76.5528ZM85.9811 30.4545V45H82.0322V30.4545H85.9811ZM91.6309 45H87.3696L92.1707 30.4545H97.5684L102.37 45H98.1082L94.9264 34.4602H94.8128L91.6309 45ZM90.8355 39.2614H98.8469V42.2159H90.8355V39.2614ZM107.755 45V30.4545H111.704V41.8182H117.584V45H107.755ZM123.13 30.4545V45H119.181V30.4545H123.13ZM125.001 30.4545H129.916L133.296 38.6932H133.467L136.848 30.4545H141.762V45H137.899V36.5909H137.785L134.546 44.8864H132.217L128.978 36.5341H128.865V45H125.001V30.4545ZM147.583 30.4545V45H143.634V30.4545H147.583ZM149.056 33.6364V30.4545H161.698V33.6364H157.323V45H153.431V33.6364H149.056ZM163.185 45V30.4545H173.668V33.6364H167.133V36.1364H173.128V39.3182H167.133V41.8182H173.639V45H163.185ZM181.223 45H175.626V30.4545H181.166C182.662 30.4545 183.955 30.7457 185.044 31.3281C186.137 31.9058 186.98 32.7391 187.572 33.8281C188.169 34.9124 188.467 36.2121 188.467 37.7273C188.467 39.2424 188.171 40.5445 187.579 41.6335C186.987 42.7178 186.149 43.5511 185.065 44.1335C183.981 44.7112 182.7 45 181.223 45ZM179.575 41.6477H181.081C181.8 41.6477 182.413 41.5317 182.92 41.2997C183.431 41.0677 183.82 40.6676 184.085 40.0994C184.355 39.5312 184.49 38.7405 184.49 37.7273C184.49 36.714 184.352 35.9233 184.078 35.3551C183.808 34.7869 183.41 34.3868 182.884 34.1548C182.364 33.9228 181.724 33.8068 180.967 33.8068H179.575V41.6477Z" fill="#0900FB"/>
</svg>
